<svg xmlns="http://www.w3.org/2000/svg" width="52" height="52.025" viewBox="0 0 52 52.025">
  <g id="Group_8" data-name="Group 8" transform="translate(1.5 0.5)">
    <path id="Path_12" data-name="Path 12" d="M311,136.5a24.418,24.418,0,0,1-1.973,9.648l-.081.187a24.541,24.541,0,0,1-26.7,14.3q-.221-.039-.441-.081a24.279,24.279,0,0,1-4.432-1.307q-.349-.14-.693-.291c-.157-.068-.313-.138-.468-.211A24.5,24.5,0,1,1,311,136.5Z" transform="translate(-262 -111)" fill="#6c63ff" stroke="#fff" stroke-width="3"/>
    <path id="Path_13" data-name="Path 13" d="M408.289,361.3q-.221-.039-.441-.081a100.748,100.748,0,0,0-1.544-14.446,53.6,53.6,0,0,0-2.642-9.609,29.91,29.91,0,0,0-1.382-3.033,15.727,15.727,0,0,0-4.39-5.429l.258-.352a15.158,15.158,0,0,1,3.93,4.5q.523.868,1,1.851.516,1.052.985,2.235.3.752.578,1.557a56.513,56.513,0,0,1,2.063,7.972q.188.989.358,2.027A102.8,102.8,0,0,1,408.289,361.3Z" transform="translate(-388.04 -312.668)" opacity="0.2"/>
    <path id="Path_14" data-name="Path 14" d="M406.127,606.665c-.157-.068-.313-.138-.468-.211a35.587,35.587,0,0,0-.939-5.624,18.457,18.457,0,0,0-.856-2.551,7.657,7.657,0,0,0-2.3-3.227l.258-.352a8.009,8.009,0,0,1,2.409,3.3,22.643,22.643,0,0,1,1.443,5.086C405.9,604.37,406.038,605.608,406.127,606.665Z" transform="translate(-391.444 -559.711)" opacity="0.2"/>
    <circle id="Ellipse_1" data-name="Ellipse 1" cx="2.181" cy="2.181" r="2.181" transform="translate(5.231 11.662)" opacity="0.2"/>
    <circle id="Ellipse_2" data-name="Ellipse 2" cx="2.181" cy="2.181" r="2.181" transform="translate(5.934 30.437)" opacity="0.2"/>
    <path id="Path_15" data-name="Path 15" d="M482.176,296.232a9.687,9.687,0,0,0,.558,4.972,8.829,8.829,0,0,0,1.675-9.449A9.688,9.688,0,0,0,482.176,296.232Z" transform="translate(-466.105 -278.726)" opacity="0.2"/>
    <path id="Path_16" data-name="Path 16" d="M332.24,398.612a9.735,9.735,0,0,0,4.99.326,8.883,8.883,0,0,0-9.013-3.3A9.736,9.736,0,0,0,332.24,398.612Z" transform="translate(-323.417 -374.911)" opacity="0.2"/>
    <path id="Path_17" data-name="Path 17" d="M341.845,639.906a6.79,6.79,0,0,0,3.5.222,6.188,6.188,0,0,0-6.317-2.31A6.79,6.79,0,0,0,341.845,639.906Z" transform="translate(-333.445 -599.581)" opacity="0.2"/>
    <circle id="Ellipse_3" data-name="Ellipse 3" cx="9.551" cy="9.551" r="9.551" transform="translate(14.898 10.823)" fill="#fff"/>
    <path id="Path_18" data-name="Path 18" d="M547.833,455.772s1.194,5.671,1.194,6.268,5.671,3.283,5.671,3.283l5.074-.9,1.791-5.373s-2.985-4.477-2.985-6.268Z" transform="translate(-527.114 -428.085)" fill="#fff"/>
    <path id="Path_19" data-name="Path 19" d="M425.189,522.051l-.081.187a24.54,24.54,0,0,1-26.7,14.3q-.221-.039-.441-.081a24.282,24.282,0,0,1-4.432-1.307q-.349-.14-.693-.291c-.157-.068-.313-.138-.468-.211a24.465,24.465,0,0,1-4-2.34l-1.132-3.284.636-.486,1.309-1,1.4-1.066.363-.278,5.481-4.184.4-.309,2.849-2.175h0s3.081,5.02,7.558,3.527a6.174,6.174,0,0,0,4.38-5.772Z" transform="translate(-378.162 -487.903)" fill="#2f2e41"/>
    <path id="Path_20" data-name="Path 20" d="M456.291,219.336s3.033-6.57,8.845-5.054,9.1,3.791,9.35,6.065a32.453,32.453,0,0,1-.126,5.686s-.632-4.675-4.675-3.664-10.361.253-10.361.253l-1.011,9.1s-1.137-1.643-2.4-.632S452.248,221.358,456.291,219.336Z" transform="translate(-440.124 -206.657)" fill="#2f2e41"/>
    <path id="Path_21" data-name="Path 21" d="M378.03,685.4q-.349-.14-.693-.291c-.157-.068-.313-.138-.468-.211a24.562,24.562,0,0,1-6.349-4.255,8.587,8.587,0,0,1,1.212-1.369h4.477l.671,2.257Z" transform="translate(-362.654 -638.151)" fill="#2f2e41"/>
    <path id="Path_22" data-name="Path 22" d="M853.173,576.32l3.841.678a24.5,24.5,0,0,1-4.114,6.42Z" transform="translate(-810.069 -542.664)" fill="#2f2e41"/>
  </g>
</svg>
